# Blender v3.1.2 OBJ File: ''
# www.blender.org
mtllib Curve.mtl
g ConfettiCurve
v 0.028009 0.031250 -0.012106
v 0.015761 0.031250 -0.009858
v 0.015761 -0.031250 -0.009858
v 0.028009 -0.031250 -0.012106
v 0.004736 0.031250 -0.004070
v 0.004736 -0.031250 -0.004070
v -0.004070 0.031250 0.004736
v -0.004070 -0.031250 0.004736
v -0.009858 0.031250 0.015761
v -0.009858 -0.031250 0.015761
v -0.012106 0.031250 0.028009
v -0.012106 -0.031250 0.028009
v 0.015761 -0.031250 -0.009858
v 0.015761 0.031250 -0.009858
v 0.028009 0.031250 -0.012106
v 0.028009 -0.031250 -0.012106
v 0.004736 -0.031250 -0.004070
v 0.004736 0.031250 -0.004070
v -0.004070 -0.031250 0.004736
v -0.004070 0.031250 0.004736
v -0.009858 -0.031250 0.015761
v -0.009858 0.031250 0.015761
v -0.012106 -0.031250 0.028009
v -0.012106 0.031250 0.028009
vt 0.000000 0.000000
vt 0.200000 0.000000
vt 0.200000 1.000000
vt 0.000000 1.000000
vt 0.400000 0.000000
vt 0.400000 1.000000
vt 0.600000 0.000000
vt 0.600000 1.000000
vt 0.800000 0.000000
vt 0.800000 1.000000
vt 1.000000 0.000000
vt 1.000000 1.000000
vt 0.200000 1.000000
vt 0.200000 0.000000
vt 0.000000 0.000000
vt 0.000000 1.000000
vt 0.400000 1.000000
vt 0.400000 0.000000
vt 0.600000 1.000000
vt 0.600000 0.000000
vt 0.800000 1.000000
vt 0.800000 0.000000
vt 1.000000 1.000000
vt 1.000000 0.000000
vn 0.1805 -0.0000 0.9836
vn 0.3264 -0.0000 0.9452
vn 0.5927 -0.0000 0.8054
vn 0.8054 -0.0000 0.5927
vn 0.9452 -0.0000 0.3264
vn 0.9836 -0.0000 0.1805
vn -0.3264 0.0000 -0.9452
vn -0.1805 0.0000 -0.9836
vn -0.5927 0.0000 -0.8054
vn -0.8054 0.0000 -0.5927
vn -0.9452 0.0000 -0.3264
vn -0.9836 0.0000 -0.1805
usemtl (null)
s 1
f 1/1/1 2/2/2 3/3/2 4/4/1
f 2/2/2 5/5/3 6/6/3 3/3/2
f 5/5/3 7/7/4 8/8/4 6/6/3
f 7/7/4 9/9/5 10/10/5 8/8/4
f 9/9/5 11/11/6 12/12/6 10/10/5
f 13/13/7 14/14/7 15/15/8 16/16/8
f 17/17/9 18/18/9 14/14/7 13/13/7
f 19/19/10 20/20/10 18/18/9 17/17/9
f 21/21/11 22/22/11 20/20/10 19/19/10
f 23/23/12 24/24/12 22/22/11 21/21/11
