# Blender v3.1.2 OBJ File: ''
# www.blender.org
mtllib Hexagon.mtl
g Hexagon
v 0.000000 1.000000 -0.089785
v 0.000000 1.000000 0.503089
v 0.866025 0.500000 0.503089
v 0.866025 0.500000 -0.089785
v 0.866025 -0.500000 0.503089
v 0.866025 -0.500000 -0.089785
v 0.000000 -1.000000 0.503089
v 0.000000 -1.000000 -0.089785
v -0.866025 -0.500000 0.503089
v -0.866025 -0.500000 -0.089785
v -0.866025 0.500000 0.503089
v -0.866025 0.500000 -0.089785
vt 0.494547 0.995869
vt 0.505453 1.000000
vt 1.000000 0.750838
vt 0.989094 0.746708
vt 1.000000 0.252904
vt 0.989094 0.248773
vt 0.505453 0.004131
vt 0.494547 0.000000
vt 0.010906 0.253293
vt 0.000000 0.249162
vt 0.010906 0.751227
vt 0.000000 0.747097
vn 0.5000 0.8660 0.0000
vn 1.0000 0.0000 0.0000
vn 0.5000 -0.8660 -0.0000
vn -0.5000 -0.8660 -0.0000
vn 0.0000 -0.0000 1.0000
vn -1.0000 0.0000 0.0000
vn -0.5000 0.8660 0.0000
vn 0.0000 0.0000 -1.0000
usemtl (null)
s 1
f 1/1/1 2/2/1 3/3/1 4/4/1
f 4/4/2 3/3/2 5/5/2 6/6/2
f 6/6/3 5/5/3 7/7/3 8/8/3
f 8/8/4 7/7/4 9/9/4 10/10/4
f 3/3/5 2/2/5 11/11/5 9/9/5 7/7/5 5/5/5
f 10/10/6 9/9/6 11/11/6 12/12/6
f 12/12/7 11/11/7 2/2/7 1/1/7
f 1/1/8 4/4/8 6/6/8 8/8/8 10/10/8 12/12/8
